<?xml version="1.0" encoding="utf-8"?>
<!-- Generator: Adobe Illustrator 18.1.1, SVG Export Plug-In . SVG Version: 6.00 Build 0)  -->
<!DOCTYPE svg PUBLIC "-//W3C//DTD SVG 1.1//EN" "http://www.w3.org/Graphics/SVG/1.1/DTD/svg11.dtd">
<svg version="1.1" id="Layer_1" xmlns="http://www.w3.org/2000/svg" xmlns:xlink="http://www.w3.org/1999/xlink" x="0px" y="0px"
	 viewBox="0 0 300 300" enable-background="new 0 0 300 300" xml:space="preserve">
<path fill="#FFFFFF" d="M150,0C67.2,0,0,67.2,0,150c0,38.2,14.3,73.1,37.8,99.6L249.6,37.8C223.1,14.3,188.2,0,150,0z M108.1,106.1
	V139H90v-32.5L58.3,56.5h21.2l19.7,33.1l20-33.1h20.6L108.1,106.1z"/>
<path fill="#FFFFFF" d="M262.2,50.4L50.4,262.2C76.9,285.7,111.8,300,150,300c82.8,0,150-67.2,150-150
	C300,111.8,285.7,76.9,262.2,50.4z M243.7,244.3h-15.4l-39.9-52.4v52.4h-17.9v-82.4h16.7l38.6,50.7v-50.7h17.9V244.3z"/>
</svg>
