<?xml version="1.0" encoding="utf-8"?>
<!-- Generator: Adobe Illustrator 16.0.4, SVG Export Plug-In . SVG Version: 6.00 Build 0)  -->
<!DOCTYPE svg PUBLIC "-//W3C//DTD SVG 1.1//EN" "http://www.w3.org/Graphics/SVG/1.1/DTD/svg11.dtd">
<svg version="1.1" id="Layer_1" xmlns="http://www.w3.org/2000/svg" xmlns:xlink="http://www.w3.org/1999/xlink" x="0px" y="0px"
	 width="1295.96px" height="1296px" viewBox="216.04 0 1295.96 1296" enable-background="new 216.04 0 1295.96 1296"
	 xml:space="preserve">
<path fill="#008B99" d="M864,0C506.304,0,216,290.304,216,648c0,165.024,61.776,315.792,163.296,430.272l914.977-914.977
	C1179.792,61.776,1029.024,0,864,0z M682.992,458.352V600.48H604.8v-140.4l-136.943-216h91.583l85.104,142.992l86.4-142.992h88.991
	L682.992,458.352z"/>
<path fill="#008B99" d="M1348.704,217.728l-914.976,914.976C548.208,1234.225,698.977,1296,864,1296c357.696,0,648-290.304,648-648
	C1512,482.976,1450.225,332.208,1348.704,217.728z M1268.784,1055.376h-66.528l-172.368-226.368v226.368h-77.327V699.408h72.144
	l166.752,219.023V699.408h77.328V1055.376L1268.784,1055.376z"/>
</svg>
